<svg width="219" height="41" viewBox="0 0 219 41" fill="none" xmlns="http://www.w3.org/2000/svg">
<path d="M16 30.5C21.5228 30.5 26 26.0228 26 20.5C26 14.9772 21.5228 10.5 16 10.5C10.4772 10.5 6 14.9772 6 20.5C6 26.0228 10.4772 30.5 16 30.5Z" stroke="black" stroke-width="2" stroke-linecap="round" stroke-linejoin="round"/>
<path d="M20.24 16.26L18.12 22.62L11.76 24.74L13.88 18.38L20.24 16.26Z" stroke="black" stroke-width="2" stroke-linecap="round" stroke-linejoin="round"/>
<path d="M43.232 31.488C43.232 31.9147 42.176 32.128 40.064 32.128C37.952 32.128 36.896 31.9147 36.896 31.488V15.424H33.056C32.6933 15.424 32.4373 14.9333 32.288 13.952C32.224 13.4827 32.192 13.0027 32.192 12.512C32.192 12.0213 32.224 11.5413 32.288 11.072C32.4373 10.0907 32.6933 9.6 33.056 9.6H46.976C47.3387 9.6 47.5947 10.0907 47.744 11.072C47.808 11.5413 47.84 12.0213 47.84 12.512C47.84 13.0027 47.808 13.4827 47.744 13.952C47.5947 14.9333 47.3387 15.424 46.976 15.424H43.232V31.488ZM56.0417 31.968C56.0417 32.1173 55.0711 32.192 53.1298 32.192C51.1884 32.1493 50.2178 32.064 50.2178 31.936V21.312H49.3538C49.0124 21.312 48.7351 21.1093 48.5218 20.704C48.3298 20.2773 48.2338 19.7547 48.2338 19.136C48.2338 16.832 48.9164 15.68 50.2818 15.68C51.2418 15.68 52.0418 15.9787 52.6818 16.576C53.3218 17.152 53.6418 17.8133 53.6418 18.56C54.0898 17.6853 54.6871 16.992 55.4338 16.48C56.2018 15.9467 56.9804 15.68 57.7698 15.68C59.0071 15.68 59.7538 16 60.0098 16.64C60.0738 16.8107 60.1058 17.0667 60.1058 17.408C60.1058 17.728 59.9991 18.3147 59.7858 19.168C59.5938 20.0213 59.3911 20.64 59.1778 21.024C58.9644 21.408 58.8364 21.6 58.7938 21.6C58.7511 21.6 58.5484 21.5253 58.1858 21.376C57.8444 21.2053 57.5351 21.12 57.2578 21.12C56.4471 21.12 56.0417 21.76 56.0417 23.04V31.968ZM63.7373 20.384C63.1399 19.3173 62.8413 18.4533 62.8413 17.792C62.8413 17.1093 63.0226 16.672 63.3853 16.48C64.6013 15.9467 66.2653 15.68 68.3773 15.68C70.5106 15.68 72.0146 16.1813 72.8893 17.184C73.7639 18.1653 74.2013 19.6267 74.2013 21.568V26.624H75.2893C75.6519 26.624 75.9293 26.8373 76.1213 27.264C76.3346 27.6907 76.4412 28.2773 76.4412 29.024C76.4412 29.7707 76.2493 30.5067 75.8653 31.232C75.5026 31.9573 75.0013 32.32 74.3613 32.32C73.2093 32.32 72.2813 32.0107 71.5773 31.392C71.2573 31.136 71.0119 30.8267 70.8413 30.464C69.8599 31.7013 68.3346 32.32 66.2653 32.32C64.7079 32.32 63.3959 31.7653 62.3293 30.656C61.2626 29.5467 60.7293 28.2347 60.7293 26.72C60.7293 23.2427 62.8093 21.504 66.9693 21.504H68.7292V21.184C68.7292 20.6293 68.6333 20.2773 68.4413 20.128C68.2706 19.9573 67.8546 19.872 67.1933 19.872C66.3826 19.872 65.2306 20.0427 63.7373 20.384ZM66.2973 26.272C66.2973 26.7413 66.4253 27.104 66.6813 27.36C66.9373 27.5947 67.2573 27.712 67.6413 27.712C68.0466 27.712 68.4093 27.552 68.7292 27.232V24.768H67.8333C66.8093 24.768 66.2973 25.2693 66.2973 26.272ZM83.5005 24.064C83.5005 26.1547 84.2898 27.2 85.8685 27.2C86.8925 27.2 87.7458 26.9973 88.4285 26.592C88.7485 26.592 89.0045 27.1467 89.1965 28.256C89.4098 29.344 89.5165 30.0907 89.5165 30.496C89.5165 30.88 89.4632 31.136 89.3565 31.264C88.2258 31.968 86.6792 32.32 84.7165 32.32C82.7538 32.32 81.0792 31.5947 79.6925 30.144C78.3272 28.672 77.6445 26.6773 77.6445 24.16C77.6445 21.6213 78.3165 19.5733 79.6605 18.016C81.0258 16.4587 82.8285 15.68 85.0685 15.68C87.3298 15.68 88.8978 16.224 89.7725 17.312C89.9645 17.5467 90.0605 17.8987 90.0605 18.368C90.0605 18.816 89.9752 19.3707 89.8045 20.032C89.4205 21.3973 88.9192 22.1867 88.3005 22.4C88.2152 22.4213 88.0872 22.432 87.9165 22.432C87.7672 22.432 87.5752 22.304 87.3405 22.048C86.5085 21.216 85.8365 20.8 85.3245 20.8C84.8338 20.8 84.4072 21.056 84.0445 21.568C83.6818 22.08 83.5005 22.912 83.5005 24.064ZM91.815 9.856C91.815 9.51467 92.7857 9.344 94.727 9.344C96.5403 9.408 97.447 9.54667 97.447 9.76V22.048L100.615 16.192C100.764 15.872 101.671 15.712 103.335 15.712C104.999 15.712 106.066 15.8187 106.535 16.032L102.375 22.816L107.175 31.808C107.218 31.8933 106.812 31.9573 105.959 32C105.127 32.064 104.434 32.096 103.879 32.096C101.831 32.096 100.732 32 100.583 31.808L97.415 24.704V31.776C97.415 32.0533 96.4763 32.192 94.599 32.192C92.743 32.192 91.815 32.064 91.815 31.808V9.856Z" fill="#1677FF"/>
<path d="M115.087 31.552C115.087 31.8933 114.074 32.064 112.047 32.064C109.999 32.064 108.975 31.904 108.975 31.584V10.72C108.975 9.97333 109.37 9.6 110.159 9.6H116.271C121.882 9.6 124.687 11.7867 124.687 16.16C124.687 17.4827 124.431 18.688 123.919 19.776C123.407 20.8427 122.682 21.696 121.743 22.336L125.775 29.056C125.604 29.568 125.05 30.1547 124.111 30.816C122.831 31.7333 121.775 32.192 120.943 32.192C120.111 32.192 119.492 31.8933 119.087 31.296L116.079 24.288H115.087V31.552ZM115.087 15.264V20.064H115.247C117.274 20.064 118.287 19.2213 118.287 17.536C118.287 16.768 118.084 16.2027 117.679 15.84C117.295 15.456 116.655 15.264 115.759 15.264H115.087ZM139.786 31.136C138.442 31.9253 136.714 32.32 134.602 32.32C132.49 32.32 130.709 31.6053 129.258 30.176C127.807 28.7253 127.082 26.7307 127.082 24.192C127.082 21.632 127.775 19.5733 129.162 18.016C130.57 16.4587 132.341 15.68 134.474 15.68C136.607 15.68 138.25 16.224 139.402 17.312C140.575 18.4 141.162 19.7227 141.162 21.28C141.162 24.736 139.178 26.464 135.21 26.464H133.002C133.002 27.104 133.173 27.552 133.514 27.808C133.877 28.0427 134.399 28.16 135.082 28.16C136.575 28.16 137.994 27.8187 139.338 27.136C139.359 27.1147 139.455 27.264 139.626 27.584C140.138 28.5013 140.394 29.28 140.394 29.92C140.394 30.5387 140.191 30.944 139.786 31.136ZM135.786 21.888C135.786 20.992 135.349 20.544 134.474 20.544C134.069 20.544 133.717 20.672 133.418 20.928C133.141 21.1627 133.002 21.5147 133.002 21.984V22.976H134.73C135.434 22.976 135.786 22.6133 135.786 21.888ZM148.501 24.064C148.501 26.1547 149.29 27.2 150.869 27.2C151.893 27.2 152.746 26.9973 153.429 26.592C153.749 26.592 154.005 27.1467 154.197 28.256C154.41 29.344 154.517 30.0907 154.517 30.496C154.517 30.88 154.463 31.136 154.357 31.264C153.226 31.968 151.679 32.32 149.717 32.32C147.754 32.32 146.079 31.5947 144.693 30.144C143.327 28.672 142.645 26.6773 142.645 24.16C142.645 21.6213 143.317 19.5733 144.661 18.016C146.026 16.4587 147.829 15.68 150.069 15.68C152.33 15.68 153.898 16.224 154.773 17.312C154.965 17.5467 155.061 17.8987 155.061 18.368C155.061 18.816 154.975 19.3707 154.805 20.032C154.421 21.3973 153.919 22.1867 153.301 22.4C153.215 22.4213 153.087 22.432 152.917 22.432C152.767 22.432 152.575 22.304 152.341 22.048C151.509 21.216 150.837 20.8 150.325 20.8C149.834 20.8 149.407 21.056 149.045 21.568C148.682 22.08 148.501 22.912 148.501 24.064ZM162.639 31.744C162.639 31.936 161.551 32.032 159.375 32.032C157.668 32.0107 156.815 31.9253 156.815 31.776V9.984C156.815 9.664 157.85 9.504 159.919 9.504C161.732 9.568 162.639 9.67467 162.639 9.824V31.744ZM167.55 20.384C166.952 19.3173 166.654 18.4533 166.654 17.792C166.654 17.1093 166.835 16.672 167.198 16.48C168.414 15.9467 170.078 15.68 172.19 15.68C174.323 15.68 175.827 16.1813 176.702 17.184C177.576 18.1653 178.014 19.6267 178.014 21.568V26.624H179.102C179.464 26.624 179.742 26.8373 179.934 27.264C180.147 27.6907 180.254 28.2773 180.254 29.024C180.254 29.7707 180.062 30.5067 179.678 31.232C179.315 31.9573 178.814 32.32 178.174 32.32C177.022 32.32 176.094 32.0107 175.39 31.392C175.07 31.136 174.824 30.8267 174.654 30.464C173.672 31.7013 172.147 32.32 170.078 32.32C168.52 32.32 167.208 31.7653 166.142 30.656C165.075 29.5467 164.542 28.2347 164.542 26.72C164.542 23.2427 166.622 21.504 170.782 21.504H172.542V21.184C172.542 20.6293 172.446 20.2773 172.254 20.128C172.083 19.9573 171.667 19.872 171.006 19.872C170.195 19.872 169.043 20.0427 167.55 20.384ZM170.11 26.272C170.11 26.7413 170.238 27.104 170.494 27.36C170.75 27.5947 171.07 27.712 171.454 27.712C171.859 27.712 172.222 27.552 172.542 27.232V24.768H171.646C170.622 24.768 170.11 25.2693 170.11 26.272ZM187.921 31.808C187.921 31.9787 186.94 32.064 184.977 32.064C183.036 32.064 182.065 31.9893 182.065 31.84V16.128C182.065 15.9787 183.036 15.904 184.977 15.904C186.94 15.904 187.921 15.968 187.921 16.096V31.808ZM187.921 14.208C187.921 14.3573 186.94 14.432 184.977 14.432C183.036 14.432 182.065 14.368 182.065 14.24V9.632C182.065 9.41866 183.036 9.312 184.977 9.312C186.94 9.312 187.921 9.376 187.921 9.504V14.208ZM205.311 31.84C205.311 31.9893 204.394 32.064 202.559 32.064C200.746 32.064 199.839 31.968 199.839 31.776V22.464C199.839 21.3973 199.487 20.864 198.783 20.864C198.42 20.864 197.94 21.0987 197.343 21.568V31.808C197.343 32.0213 196.426 32.128 194.591 32.128C192.778 32.128 191.871 32.0107 191.871 31.776V21.312H191.071C190.367 21.312 190.015 20.576 190.015 19.104C190.015 18.4427 190.143 17.7707 190.399 17.088C190.74 16.1493 191.295 15.68 192.063 15.68C192.831 15.68 193.567 15.8827 194.271 16.288C194.996 16.6933 195.434 17.0773 195.583 17.44C196.906 16.2667 198.367 15.68 199.967 15.68C201.588 15.68 202.89 16.1813 203.871 17.184C205.023 16.1813 206.41 15.68 208.031 15.68C211.551 15.68 213.311 17.824 213.311 22.112V31.84C213.311 31.9893 212.394 32.064 210.559 32.064C208.746 32.064 207.839 31.968 207.839 31.776V22.464C207.839 21.3973 207.487 20.864 206.783 20.864C206.399 20.864 205.908 21.0987 205.311 21.568V31.84Z" fill="black"/>
</svg>
